<?xml version="1.0" encoding="utf-8"?>
<!-- Generator: Adobe Illustrator 24.0.3, SVG Export Plug-In . SVG Version: 6.00 Build 0)  -->
<svg version="1.1" xmlns="http://www.w3.org/2000/svg" xmlns:xlink="http://www.w3.org/1999/xlink" x="0px" y="0px"
	 viewBox="0 0 135 135" style="enable-background:new 0 0 135 135;" xml:space="preserve">
<style type="text/css">
	.st0{display:none;}
	.st1{display:inline;fill:none;stroke:#F980A8;stroke-width:7;stroke-linecap:round;stroke-miterlimit:10;}
	.st2{fill:#FFC8A3;}
	.st3{fill:#FFEDC1;}
	.st4{fill:#FFC740;}
	.st5{fill:#AFF9CD;}
	.st6{fill:#24CE70;}
	.st7{fill:#009C43;}
	.st8{fill:#FFD6D7;}
	.st9{fill:none;stroke:#C0142E;stroke-width:7;stroke-linecap:round;stroke-miterlimit:10;}
	.st10{fill:none;stroke:#C0142E;stroke-width:7;stroke-linecap:round;stroke-linejoin:round;stroke-miterlimit:10;}
	.st11{fill:#94E6FF;}
	.st12{fill:#E6D9FF;}
	.st13{fill:none;stroke:#8E50EF;stroke-width:7;stroke-linecap:round;stroke-miterlimit:10;}
	.st14{fill:#C0142E;}
	.st15{fill:#F95357;}
	.st16{fill:#24CE70;stroke:#F95357;stroke-width:7;stroke-linecap:round;stroke-miterlimit:10;}
	.st17{fill:#C89700;}
	.st18{fill:none;stroke:#5820BB;stroke-width:7;stroke-linecap:round;stroke-miterlimit:10;}
	.st19{fill:#5820BB;}
	.st20{fill:#83E2DE;}
	.st21{fill:#06C1BB;}
	.st22{fill:#00908B;}
	.st23{fill:none;stroke:#00908B;stroke-width:7;stroke-linecap:round;stroke-miterlimit:10;}
	.st24{fill:#99CCFF;}
	.st25{fill:#004ACB;}
	.st26{fill:none;stroke:#0074FF;stroke-width:7;stroke-linecap:round;stroke-miterlimit:10;}
	.st27{fill:#0086CB;}
	.st28{fill:#00B6FF;}
	.st29{fill:none;stroke:#0086CB;stroke-width:7;stroke-linecap:round;stroke-miterlimit:10;}
	.st30{fill:#0074FF;}
	.st31{fill:#B94600;}
	.st32{fill:none;stroke:#B94600;stroke-width:7;stroke-linecap:round;stroke-miterlimit:10;}
	.st33{fill:none;stroke:#F27520;stroke-width:7;stroke-linecap:round;stroke-miterlimit:10;}
	.st34{fill:none;stroke:#81DBFF;stroke-width:7;stroke-linecap:round;stroke-miterlimit:10;}
	.st35{fill:none;stroke:#F95357;stroke-width:7;stroke-linecap:round;stroke-miterlimit:10;}
	.st36{fill:none;stroke:#009C43;stroke-width:7;stroke-linecap:round;stroke-miterlimit:10;}
	.st37{fill:none;stroke:#24CE70;stroke-width:7;stroke-linecap:round;stroke-miterlimit:10;}
	.st38{fill:none;stroke:#009C43;stroke-width:7;stroke-linecap:round;stroke-linejoin:round;stroke-miterlimit:10;}
	.st39{fill:none;stroke:#24CE70;stroke-width:7;stroke-linecap:round;stroke-linejoin:round;stroke-miterlimit:10;}
	.st40{fill:none;stroke:#009C43;stroke-miterlimit:10;}
</style>
<g id="Layer_2">
</g>
<g id="Layer_1">
</g>
<g id="grid" class="st0">
</g>
<g id="Layer_4">
	<path id="Rectangle_1372_55_" class="st5" d="M19.4,0h95c11,0,20,9.2,20,20.5v94.1c0,11.3-9,20.5-20,20.5h-95c-11,0-20-9.2-20-20.5
		V20.5C-0.6,9.2,8.4,0,19.4,0z"/>
	<path class="st7" d="M68.2,65.6c-4-1-5.3-2.1-5.3-3.8c0-1.9,1.8-3.3,4.8-3.3c2.5,0,3.8,1,4.2,2.5c0.2,0.7,0.8,1.2,1.5,1.2h0.5
		c0.9,0,1.7-0.7,1.7-1.7c0-0.2,0-0.4-0.1-0.6c-0.7-2.1-2.5-3.8-5.2-4.5v-1.2c0-1.5-1.2-2.6-2.6-2.6S65,52.9,65,54.4v1.2
		c-3.4,0.7-6.2,3-6.2,6.4c0,4.1,3.4,6.1,8.3,7.3c4.4,1.1,5.3,2.6,5.3,4.3c0,1.2-0.9,3.2-4.8,3.2c-2.9,0-4.4-1-5-2.5
		c-0.2-0.7-0.9-1.2-1.6-1.2h-0.5c-0.9,0-1.7,0.7-1.7,1.7c0,0.2,0,0.4,0.1,0.6c1,2.4,3.3,3.9,6,4.5v1.2c0,1.5,1.2,2.6,2.6,2.6
		c1.5,0,2.6-1.2,2.6-2.6v-1.1c3.4-0.6,6.2-2.6,6.2-6.2C76.4,68.4,72.2,66.7,68.2,65.6z"/>
	<g>
		<path class="st7" d="M62.4,96.5v14.4c0,1.9-1.7,3.3-3.5,3c-21.9-4-38.5-23.2-38.5-46.3c0-9.8,3-18.8,8.1-26.4
			c1.1-1.6,3.3-1.8,4.6-0.5l10.2,10.2c1,1,1.1,2.4,0.5,3.6c-2.1,3.9-3.3,8.3-3.3,13c0,12.4,8.3,22.8,19.7,26
			C61.5,93.9,62.4,95.1,62.4,96.5z"/>
		<path class="st7" d="M96.4,62.3c-1.3,0-2.5-0.9-2.9-2.2c-3.2-11.3-13.6-19.5-26-19.5c-4.8,0-9.3,1.2-13.2,3.4
			c-1.2,0.7-2.7,0.5-3.6-0.5L40.5,33.3c-1.3-1.3-1.1-3.5,0.5-4.6c7.5-5.2,16.7-8.2,26.6-8.2c23,0,42.1,16.4,46.2,38.2
			c0.4,1.9-1,3.6-2.9,3.6H96.4z"/>
		<path class="st6" d="M113.8,76.2c-3.5,19-18.5,34-37.4,37.6c-1.8,0.3-3.5-1.1-3.5-3l0-14.4c0-1.3,0.9-2.5,2.2-2.9
			c8.9-2.6,16-9.7,18.5-18.6c0.4-1.3,1.5-2.2,2.9-2.2l14.4,0C112.7,72.7,114.1,74.4,113.8,76.2z"/>
	</g>
</g>
</svg>
